<?xml version="1.0" encoding="UTF-8"?><svg xmlns="http://www.w3.org/2000/svg" xmlns:xlink="http://www.w3.org/1999/xlink" fill-opacity="1" color-rendering="auto" color-interpolation="auto" text-rendering="auto" stroke="black" stroke-linecap="square" width="433" stroke-miterlimit="10" shape-rendering="auto" stroke-opacity="1" fill="black" stroke-dasharray="none" font-weight="normal" stroke-width="1" height="369" font-family="'Dialog'" font-style="normal" stroke-linejoin="miter" font-size="12px" stroke-dashoffset="0" image-rendering="auto">
  <!--Generated by ySVG 2.5-->
  <defs id="genericDefs"/>
  <g>
    <defs id="defs1">
      <clipPath clipPathUnits="userSpaceOnUse" id="clipPath1">
        <path d="M0 0 L433 0 L433 369 L0 369 L0 0 Z"/>
      </clipPath>
      <clipPath clipPathUnits="userSpaceOnUse" id="clipPath2">
        <path d="M103 7 L536 7 L536 376 L103 376 L103 7 Z"/>
      </clipPath>
    </defs>
    <g fill="white" text-rendering="geometricPrecision" shape-rendering="geometricPrecision" transform="translate(-103,-7)" stroke="white">
      <rect x="103" width="433" height="369" y="7" clip-path="url(#clipPath2)" stroke="none"/>
    </g>
    <g text-rendering="geometricPrecision" stroke-miterlimit="1.45" shape-rendering="geometricPrecision" font-family="sans-serif" transform="matrix(1,0,0,1,-103,-7)" stroke-linecap="butt">
      <text x="348.2402" xml:space="preserve" y="129.1699" clip-path="url(#clipPath2)" stroke="none">Secure</text>
      <text x="348.2402" xml:space="preserve" y="143.1387" clip-path="url(#clipPath2)" stroke="none">World</text>
      <rect x="338" y="108" clip-path="url(#clipPath2)" fill="none" width="183" rx="4" ry="4" height="253"/>
      <text x="128.2402" xml:space="preserve" y="129.1699" clip-path="url(#clipPath2)" stroke="none">Insecure</text>
      <text x="128.2402" xml:space="preserve" y="143.1387" clip-path="url(#clipPath2)" stroke="none">World</text>
      <rect x="118" y="108" clip-path="url(#clipPath2)" fill="none" width="183" rx="4" ry="4" height="253"/>
      <text x="159.7402" xml:space="preserve" y="257.1699" clip-path="url(#clipPath2)" stroke="none">ta-applicant</text>
      <rect x="149.5" y="236" clip-path="url(#clipPath2)" fill="none" width="87" rx="4" ry="4" height="35"/>
      <text x="148.7402" xml:space="preserve" y="313.8366" clip-path="url(#clipPath2)" stroke="none">OP-TEE kernel</text>
      <text x="148.7402" xml:space="preserve" y="327.8053" clip-path="url(#clipPath2)" stroke="none">driver</text>
      <rect x="138.5" y="292.6667" clip-path="url(#clipPath2)" fill="none" width="109" rx="4" ry="4" height="51"/>
      <text x="151.7402" xml:space="preserve" y="192.1699" clip-path="url(#clipPath2)" stroke="none">host program</text>
      <rect x="141.5" y="171" clip-path="url(#clipPath2)" fill="none" width="103" rx="4" ry="4" height="35"/>
      <text x="128.2402" xml:space="preserve" y="43.5033" clip-path="url(#clipPath2)" stroke="none">RAM</text>
      <rect fill="none" x="118" width="160" height="62" y="22.3333" clip-path="url(#clipPath2)"/>
      <text x="175.2402" xml:space="preserve" y="57.0033" clip-path="url(#clipPath2)" stroke="none">TA blob</text>
      <rect x="165" y="35.8333" clip-path="url(#clipPath2)" fill="none" width="103" rx="4" ry="4" height="35"/>
      <text x="394.0869" xml:space="preserve" y="315.3366" clip-path="url(#clipPath2)" stroke="none">Trusted</text>
      <text x="383.4756" xml:space="preserve" y="329.3053" clip-path="url(#clipPath2)" stroke="none">Application</text>
      <rect x="360" y="292.6667" clip-path="url(#clipPath2)" fill="none" width="114" rx="4" ry="4" height="51"/>
      <path fill="none" d="M193 271.0244 L193 284.708" clip-path="url(#clipPath2)"/>
      <path d="M193 292.708 L198 280.708 L193 283.708 L188 280.708 Z" clip-path="url(#clipPath2)" stroke="none"/>
      <path fill="none" d="M193 205.9878 L193 228.0077" clip-path="url(#clipPath2)"/>
      <path d="M193 236.0077 L198 224.0077 L193 227.0077 L188 224.0077 Z" clip-path="url(#clipPath2)" stroke="none"/>
      <path fill="none" stroke-dasharray="6,2" d="M268.0446 53.3333 L417 53.3333 L417 284.6596" clip-path="url(#clipPath2)"/>
      <path stroke-dasharray="6,2" d="M417 292.6596 L422 280.6596 L417 283.6596 L412 280.6596 Z" clip-path="url(#clipPath2)" stroke="none"/>
      <text x="430.21" xml:space="preserve" y="104.1884" clip-path="url(#clipPath2)" stroke="none">LOAD</text>
      <path fill="none" d="M247.4961 318.1667 L352.0159 318.1667" clip-path="url(#clipPath2)"/>
      <path d="M360.0159 318.1667 L348.0159 313.1667 L351.0159 318.1667 L348.0159 323.1667 Z" clip-path="url(#clipPath2)" stroke="none"/>
    </g>
  </g>
</svg>
